<?xml version="1.0" encoding="utf-8"?>
<!-- Generator: Adobe Illustrator 25.4.1, SVG Export Plug-In . SVG Version: 6.00 Build 0)  -->
<svg version="1.1" id="Ebene_1" xmlns="http://www.w3.org/2000/svg" xmlns:xlink="http://www.w3.org/1999/xlink" x="0px" y="0px"
	 viewBox="0 0 500 500" style="enable-background:new 0 0 500 500;" xml:space="preserve">
<style type="text/css">
	.st0{fill:#FFFFFF;}
	.st1{enable-background:new    ;}
	.st2{fill:#2DABE2;}
</style>
<g id="Wasser">
	<path class="st0" d="M423.2,236.9c-0.2,93.4-76,168.9-169.3,168.8c-83-0.1-153.6-60.5-166.7-142.5c24,9.4,83.5,27.1,143.3,1.7
		c73.5-31.3,106.9-51.4,191.9-45.5C423,225.2,423.2,231,423.2,236.9z"/>
	<path class="st0" d="M415.8,187.4c-45.8-3.2-76.7,1.2-106.9,10.9l0,0c-25.7,8.2-51,20.2-84.8,34.6c-56.4,24-112.6,9.6-138.9,0
		c0.1-6.6,0.7-13.1,1.6-19.6c0-0.2,0.1-0.4,0.1-0.6c27.9,9.4,80.9,21,134.1-1.7c33.8-14.4,59.1-26.4,84.8-34.6l0,0
		c29-9.2,58.6-13.7,101.4-11.2C410.6,172.3,413.5,179.7,415.8,187.4z"/>
	<path class="st0" d="M277.9,157.3c-18,7.1-37.1,15.9-60.1,25.7c-48,20.5-118.6,6.2-118.6,6.2s48.6-36.6,147.1-31.6
		C256.9,158.2,267.4,158.1,277.9,157.3z"/>
</g>
<g id="OBJECTS">
	<g class="st1">
		<path class="st2" d="M259.7,262.9h5.9v26.6h-5.9V262.9z M276.4,289.5v-5.5h-9.9v5.5H276.4z"/>
		<path class="st2" d="M278.8,262.9h5.9v26.6h-5.9V262.9z"/>
	</g>
	<g class="st1">
		<path class="st2" d="M295.4,289.5h-5.9v-26.6h5.9V289.5z M296.4,268.4h9.9v-5.5h-9.9V268.4z M296.4,278.8h5.7v-5.3h-5.7V278.8z"/>
	</g>
	<g class="st1">
		<path class="st2" d="M315.6,289.5h-5.9v-26.6h5.9V289.5z M316.5,268.4h9.9v-5.5h-9.9V268.4z M316.5,278.8h5.7v-5.3h-5.7V278.8z
			 M316.5,289.5h9.9v-5.5h-9.9V289.5z"/>
	</g>
	<g class="st1">
		<path class="st2" d="M238.4,320.9c0.9,0,1.6-0.2,2.2-0.6c-0.8,3.4-3.6,6.1-7.1,6.1h-4.6v-26.6h5.7v21.1H238.4z M245.9,307.5
			c0,2.4-1,4-2.5,4.9c2.5,0.9,4.4,3.3,4.4,6.5c0,4.9-3.2,7.6-8,7.6h-2.8c2.8-1.6,4.7-4.8,4.7-8.3c0-2.3-1.2-3.3-3.6-3.3h-2.7v-5.3h2
			c1.6,0,2.4-0.6,2.4-2.1c0-1.3-1-2.1-2.6-2.1h-1.7v-5.5h2.8C242.9,299.9,245.9,302.9,245.9,307.5z"/>
		<path class="st2" d="M258.5,326.5h-5.9v-26.6h5.9V326.5z M259.4,305.4h9.9v-5.5h-9.9V305.4z M259.4,315.8h5.7v-5.3h-5.7V315.8z
			 M259.4,326.5h9.9v-5.5h-9.9V326.5z"/>
	</g>
	<g class="st1">
		<path class="st2" d="M273.3,299.9h5.9v26.6h-5.9V299.9z M290,326.5v-5.5h-9.9v5.5H290z"/>
	</g>
	<g class="st1">
		<path class="st2" d="M298,313.2c0,5.2,3.1,8,6.8,8c1.8,0,3.5-0.7,4.7-2c-1.7,4-5.3,6.5-10.2,6.7c-4.8-1.9-7.7-6.4-7.7-12.7
			c0-8.4,5.1-13.7,13.1-13.7c1.1,0,2.2,0.1,3.2,0.3C301.8,301,298,305.9,298,313.2z M304.8,305.2c-1.8,0-3.5,0.7-4.7,2
			c1.7-4,5.3-6.5,10.2-6.7c4.8,1.9,7.7,6.5,7.7,12.7c0,8.4-5.1,13.7-13.1,13.7c-1.1,0-2.1-0.1-3-0.3c6.1-1.3,9.9-6.2,9.9-13.4
			C311.7,307.9,308.6,305.2,304.8,305.2z"/>
		<path class="st2" d="M327.6,323.5l-7.6-23.6h6.3l4.3,13.9L327.6,323.5z M335.8,299.9h6.2l-8.2,26.6h-5.2l-0.5-1.4L335.8,299.9z
			 M339.7,310.8l3.1-10l4,12.9l-3.1,9.9L339.7,310.8z M352,299.9h6.4l-8.5,26.6h-5.2l-0.4-1.2L352,299.9z"/>
	</g>
	<g class="st1">
		<path class="st2" d="M237.4,360.5l-7.6-23.6h6.3l4.3,13.9L237.4,360.5z M245.6,336.9h6.2l-8.2,26.6h-5.2l-0.5-1.4L245.6,336.9z
			 M249.5,347.8l3.1-10l4,12.9l-3.1,9.9L249.5,347.8z M261.8,336.9h6.4l-8.5,26.6h-5.2l-0.4-1.2L261.8,336.9z"/>
	</g>
	<g class="st1">
		<path class="st2" d="M266.9,363.5l10.6-26.6h3.8l1.2,3l-9.4,23.6H266.9z M285.7,363.5l-2.4-5.9h-6.9l2.1-5.3h2.6l-1.3-3.3l3.1-7.8
			l8.9,22.3H285.7z"/>
	</g>
	<g class="st1">
		<path class="st2" d="M290.9,336.9H311v5.5h-20.1V336.9z M298,363.5v-20.1h5.9v20.1H298z"/>
	</g>
	<g class="st1">
		<path class="st2" d="M320.4,363.5h-5.9v-26.6h5.9V363.5z M321.4,342.4h9.9v-5.5h-9.9V342.4z M321.4,352.8h5.7v-5.3h-5.7V352.8z
			 M321.4,363.5h9.9v-5.5h-9.9V363.5z"/>
		<path class="st2" d="M341.2,354v9.5h-5.7v-26.6h5.7v11.6h2.8c1,0,1.8-0.2,2.3-0.6C345.9,350.8,344.3,353.1,341.2,354z M343.7,354
			h1c5.5,0,8.8-3.8,8.8-8.5c0-4.8-3.2-8.5-9.1-8.5h-2.1v5.5h1.7c2.2,0,3.3,1.3,3.3,3C347.4,349.7,346.1,352.5,343.7,354z
			 M355.1,363.5h-7l-4.8-8.5h1c2,0,3.8-0.4,5.2-1.1L355.1,363.5z"/>
	</g>
	<g class="st1">
		<path class="st2" d="M173.9,331.2l-14.6,9.9v-8.7L173.9,331.2z M173.9,363.7h-9.8v-23.9l9.8-6.6V363.7z"/>
		<path class="st2" d="M179.9,356.8l23.4-25.6h7.5v3.1l-26.7,29.4h-4.2V356.8z M215.7,363.7h-29.4l7.9-8.8h21.5V363.7z M210.8,336.7
			v16.6H201v-5.9L210.8,336.7z M201,376.7v-11.4h9.8v11.4H201z"/>
	</g>
</g>
</svg>
