<?xml version="1.0" encoding="utf-8"?>
<!-- Generator: Adobe Illustrator 25.4.1, SVG Export Plug-In . SVG Version: 6.00 Build 0)  -->
<svg version="1.1" id="Ebene_1" xmlns="http://www.w3.org/2000/svg" xmlns:xlink="http://www.w3.org/1999/xlink" x="0px" y="0px"
	 viewBox="0 0 595.3 595.3" style="enable-background:new 0 0 595.3 595.3;" xml:space="preserve">
<style type="text/css">
	.st0{clip-path:url(#SVGID_00000118398325540298256060000011795420918370671548_);fill:#1B3864;}
	.st1{clip-path:url(#SVGID_00000118398325540298256060000011795420918370671548_);fill:#33ACE3;}
	.st2{clip-path:url(#SVGID_00000118398325540298256060000011795420918370671548_);fill:#078390;}
	.st3{clip-path:url(#SVGID_00000118398325540298256060000011795420918370671548_);fill:#29B6BC;}
	.st4{fill:#FFFFFF;}
	.st5{font-family:'AvenirNext-Bold';}
	.st6{font-size:22.0713px;}
	.st7{font-family:'AvenirNext-Regular';}
	.st8{font-size:56.8876px;}
</style>
<g>
	<defs>
		<rect id="SVGID_1_" x="12" y="48.8" width="686.1" height="452.2"/>
	</defs>
	<clipPath id="SVGID_00000052784475307721038690000013584232753785129123_">
		<use xlink:href="#SVGID_1_"  style="overflow:visible;"/>
	</clipPath>
	<path style="clip-path:url(#SVGID_00000052784475307721038690000013584232753785129123_);fill:#1B3864;" d="M307.1,474.7l-9.4-69.6
		c52.1-7,88.7-55,81.7-107.1c-0.3-2.1-0.6-4.1-1.1-6.2l68.4-14.1c18.4,89.3-39,176.6-128.3,195.1
		C314.9,473.5,310.7,474.2,307.1,474.7"/>
	<path style="clip-path:url(#SVGID_00000052784475307721038690000013584232753785129123_);fill:#33ACE3;" d="M334.7,229.4l36.1-59.4
		c40.5,24.6,66.3,61.2,75.9,107.6l-68.4,14.1C373,265,356.6,242.9,334.7,229.4"/>
	<path style="clip-path:url(#SVGID_00000052784475307721038690000013584232753785129123_);fill:#078390;" d="M288.9,215.5l2.8-69.4
		c29.2,1.2,54.2,8.8,79.1,23.9l-36.1,59.4C321.2,221.1,305.5,216.1,288.9,215.5"/>
	<path style="clip-path:url(#SVGID_00000052784475307721038690000013584232753785129123_);fill:#29B6BC;" d="M121.4,333.1
		c-12.2-90.4,51.2-173.5,141.6-185.7c10.8-1.5,17.8-1.8,28.7-1.3l-2.8,69.4c-5.5-0.2-11.1,0-16.7,0.8c-52.2,7-88.7,55-81.7,107.2
		c7,52.1,55,88.7,107.2,81.7c0,0,0,0,0,0l9.4,69.6C216.7,486.9,133.6,423.5,121.4,333.1"/>
</g>
<text transform="matrix(1 0 0 1 393.3642 444.7845)"><tspan x="0" y="0" class="st4 st5 st6">Mak</tspan><tspan x="46.7" y="0" class="st4 st5 st6">r</tspan><tspan x="55" y="0" class="st4 st5 st6">oplastic</tspan></text>
<text transform="matrix(1 0 0 1 393.3642 471.2709)" class="st4 st7 st6">5cm-50cm</text>
<text transform="matrix(1 0 0 1 410.4033 258.8363)" class="st4 st5 st6">Mezoplastic</text>
<text transform="matrix(1 0 0 1 410.4033 285.3217)" class="st4 st7 st6">0.5cm-5cm</text>
<text transform="matrix(1 0 0 1 47.0004 379.6097)" class="st4 st5 st6">Megaplastic</text>
<text transform="matrix(1 0 0 1 47.0004 406.0961)" class="st4 st7 st6">&gt;50cm</text>
<text transform="matrix(1 0 0 1 293.3378 83.722)"><tspan x="0" y="0" class="st4 st5 st6">Mic</tspan><tspan x="38.7" y="0" class="st4 st5 st6">r</tspan><tspan x="47.1" y="0" class="st4 st5 st6">oplastic</tspan></text>
<text transform="matrix(1 0 0 1 293.3378 110.2074)" class="st4 st7 st6">0.05cm-0.5cm</text>
<text transform="matrix(1 0 0 1 44.3959 347.2982)" class="st4 st5 st8">53%</text>
<text transform="matrix(1 0 0 1 396.9286 228.0043)" class="st4 st5 st8">13%</text>
<text transform="matrix(1 0 0 1 392.0341 412.7191)" class="st4 st5 st8">26%</text>
<text transform="matrix(1 0 0 1 286.7353 168.1019)" class="st4 st5 st8">8%</text>
</svg>
